<mxfile host="Electron" agent="Mozilla/5.0 (Windows NT 10.0; Win64; x64) AppleWebKit/537.36 (KHTML, like Gecko) draw.io/24.7.17 Chrome/128.0.6613.36 Electron/32.0.1 Safari/537.36" version="24.7.17">
  <diagram name="PÃ¡gina-1" id="yvHSV-Q2C3m40-Z7uqDt">
    <mxGraphModel dx="733" dy="443" grid="1" gridSize="10" guides="1" tooltips="1" connect="1" arrows="1" fold="1" page="1" pageScale="1" pageWidth="827" pageHeight="1169" math="0" shadow="0">
      <root>
        <mxCell id="0" />
        <mxCell id="1" parent="0" />
        <mxCell id="6XyGcacsk8bQew1qJmsS-1" value="" style="ellipse;whiteSpace=wrap;html=1;aspect=fixed;" vertex="1" parent="1">
          <mxGeometry x="250" y="60" width="50" height="50" as="geometry" />
        </mxCell>
        <mxCell id="6XyGcacsk8bQew1qJmsS-4" value="" style="endArrow=none;html=1;rounded=0;" edge="1" parent="1">
          <mxGeometry width="50" height="50" relative="1" as="geometry">
            <mxPoint x="274.76" y="160" as="sourcePoint" />
            <mxPoint x="274.76" y="110" as="targetPoint" />
          </mxGeometry>
        </mxCell>
        <mxCell id="6XyGcacsk8bQew1qJmsS-5" value="se gira la perrila en sentido horario&lt;div&gt;&lt;div style=&quot;&quot;&gt;&lt;span style=&quot;background-color: initial;&quot;&gt;&amp;nbsp;[el ventilador se encuentra apagado]&amp;nbsp;&lt;/span&gt;&lt;/div&gt;&lt;div style=&quot;&quot;&gt;&lt;span style=&quot;background-color: initial;&quot;&gt;// se enciende el ventilador [velocidad=1]&lt;/span&gt;&lt;/div&gt;&lt;/div&gt;" style="text;html=1;align=left;verticalAlign=middle;resizable=0;points=[];autosize=1;strokeColor=none;fillColor=none;" vertex="1" parent="1">
          <mxGeometry x="310" y="55" width="240" height="60" as="geometry" />
        </mxCell>
        <mxCell id="6XyGcacsk8bQew1qJmsS-13" style="edgeStyle=orthogonalEdgeStyle;rounded=0;orthogonalLoop=1;jettySize=auto;html=1;entryX=1;entryY=0.25;entryDx=0;entryDy=0;curved=1;exitX=0.997;exitY=0.633;exitDx=0;exitDy=0;exitPerimeter=0;" edge="1" parent="1">
          <mxGeometry relative="1" as="geometry">
            <mxPoint x="335" y="160.01" as="targetPoint" />
            <mxPoint x="334.6400000000001" y="182.98999999999995" as="sourcePoint" />
            <Array as="points">
              <mxPoint x="335" y="185.01" />
              <mxPoint x="360" y="185.01" />
              <mxPoint x="360" y="160.01" />
            </Array>
          </mxGeometry>
        </mxCell>
        <mxCell id="6XyGcacsk8bQew1qJmsS-16" style="edgeStyle=orthogonalEdgeStyle;rounded=0;orthogonalLoop=1;jettySize=auto;html=1;curved=1;" edge="1" parent="1" source="6XyGcacsk8bQew1qJmsS-6">
          <mxGeometry relative="1" as="geometry">
            <mxPoint x="210" y="170" as="targetPoint" />
          </mxGeometry>
        </mxCell>
        <mxCell id="6XyGcacsk8bQew1qJmsS-6" value="Ventilador&lt;div&gt;Funcionando&lt;/div&gt;" style="rounded=1;whiteSpace=wrap;html=1;" vertex="1" parent="1">
          <mxGeometry x="215" y="160" width="120" height="60" as="geometry" />
        </mxCell>
        <mxCell id="6XyGcacsk8bQew1qJmsS-7" value="" style="ellipse;shape=doubleEllipse;whiteSpace=wrap;html=1;aspect=fixed;" vertex="1" parent="1">
          <mxGeometry x="200" y="270" width="50" height="50" as="geometry" />
        </mxCell>
        <mxCell id="6XyGcacsk8bQew1qJmsS-8" value="" style="endArrow=none;html=1;rounded=0;" edge="1" parent="1">
          <mxGeometry width="50" height="50" relative="1" as="geometry">
            <mxPoint x="224.76" y="270" as="sourcePoint" />
            <mxPoint x="224.76" y="220" as="targetPoint" />
          </mxGeometry>
        </mxCell>
        <mxCell id="6XyGcacsk8bQew1qJmsS-9" value="se gira la perilla en&amp;nbsp;&lt;div&gt;sentido antihorario [velocidad=1]&lt;/div&gt;&lt;div&gt;// apagar ventilador&lt;/div&gt;" style="text;html=1;align=left;verticalAlign=middle;resizable=0;points=[];autosize=1;strokeColor=none;fillColor=none;" vertex="1" parent="1">
          <mxGeometry x="20" y="260" width="200" height="60" as="geometry" />
        </mxCell>
        <mxCell id="6XyGcacsk8bQew1qJmsS-10" value="" style="ellipse;shape=doubleEllipse;whiteSpace=wrap;html=1;aspect=fixed;" vertex="1" parent="1">
          <mxGeometry x="300" y="270" width="50" height="50" as="geometry" />
        </mxCell>
        <mxCell id="6XyGcacsk8bQew1qJmsS-11" value="" style="endArrow=none;html=1;rounded=0;" edge="1" parent="1">
          <mxGeometry width="50" height="50" relative="1" as="geometry">
            <mxPoint x="324.76" y="270" as="sourcePoint" />
            <mxPoint x="324.76" y="220" as="targetPoint" />
          </mxGeometry>
        </mxCell>
        <mxCell id="6XyGcacsk8bQew1qJmsS-12" value="se gira la perilla en&amp;nbsp;&lt;div&gt;sentido horario [velocidad=3]&lt;/div&gt;&lt;div&gt;// apagar ventilador&lt;/div&gt;" style="text;html=1;align=left;verticalAlign=middle;resizable=0;points=[];autosize=1;strokeColor=none;fillColor=none;" vertex="1" parent="1">
          <mxGeometry x="360" y="260" width="180" height="60" as="geometry" />
        </mxCell>
        <mxCell id="6XyGcacsk8bQew1qJmsS-14" value="se gira la perrila en sentido horario&lt;div&gt;&lt;div style=&quot;&quot;&gt;&lt;span style=&quot;background-color: initial;&quot;&gt;&amp;nbsp;[velocidad&amp;lt;3]&amp;nbsp;&lt;/span&gt;&lt;/div&gt;&lt;div style=&quot;&quot;&gt;&lt;span style=&quot;background-color: initial;&quot;&gt;// aumentar velocidad del motor&lt;/span&gt;&lt;/div&gt;&lt;/div&gt;" style="text;html=1;align=left;verticalAlign=middle;resizable=0;points=[];autosize=1;strokeColor=none;fillColor=none;" vertex="1" parent="1">
          <mxGeometry x="360" y="130" width="210" height="60" as="geometry" />
        </mxCell>
        <mxCell id="6XyGcacsk8bQew1qJmsS-15" value="se gira la perrila en sentido antihorario&lt;div&gt;&lt;div style=&quot;&quot;&gt;&lt;span style=&quot;background-color: initial;&quot;&gt;&amp;nbsp;[velocidad&amp;gt;1]&amp;nbsp;&lt;/span&gt;&lt;/div&gt;&lt;div style=&quot;&quot;&gt;&lt;span style=&quot;background-color: initial;&quot;&gt;// se decrementa la velocidad [velocidad=1]&lt;/span&gt;&lt;/div&gt;&lt;/div&gt;" style="text;html=1;align=left;verticalAlign=middle;resizable=0;points=[];autosize=1;strokeColor=none;fillColor=none;" vertex="1" parent="1">
          <mxGeometry y="100" width="250" height="60" as="geometry" />
        </mxCell>
      </root>
    </mxGraphModel>
  </diagram>
</mxfile>
